<svg width="24" height="24" viewBox="0 0 24 24" fill="none" xmlns="http://www.w3.org/2000/svg">
<path fill-rule="evenodd" clip-rule="evenodd" d="M4.91451 6.51429C4.91451 5.12986 6.04437 4 7.42879 4H18.4002C19.7846 4 20.9145 5.12986 20.9145 6.51429V15.6571C20.9145 17.0416 19.7846 18.1714 18.4002 18.1714H18.0763C17.7764 19.2246 16.8043 20 15.6574 20H5.60022C4.2158 20 3.08594 18.8701 3.08594 17.4857V9.25714C3.08594 8.11026 3.86134 7.13807 4.91451 6.83822V6.51429ZM6.28594 6.74286H15.6574C17.0418 6.74286 18.1717 7.87272 18.1717 9.25714V16.8H18.4002C19.0272 16.8 19.5431 16.2841 19.5431 15.6571V6.51429C19.5431 5.88728 19.0272 5.37143 18.4002 5.37143H7.42879C6.80179 5.37143 6.28594 5.88728 6.28594 6.51429V6.74286ZM16.8002 10.8571V9.25714C16.8002 8.63014 16.2844 8.11429 15.6574 8.11429H5.60022C4.97322 8.11429 4.45737 8.63014 4.45737 9.25714V10.8571H16.8002ZM4.45737 12.2286H16.8002V17.4857C16.8002 18.1127 16.2844 18.6286 15.6574 18.6286H5.60022C4.97322 18.6286 4.45737 18.1127 4.45737 17.4857V12.2286ZM6.28594 16.1143C6.28594 15.7356 6.59294 15.4286 6.97165 15.4286H9.71451C10.0932 15.4286 10.4002 15.7356 10.4002 16.1143C10.4002 16.493 10.0932 16.8 9.71451 16.8H6.97165C6.59294 16.8 6.28594 16.493 6.28594 16.1143Z" fill="#347AE2"/>
</svg>
